<?xml version="1.0" encoding="utf-8"?>
<!-- Generator: Adobe Illustrator 27.3.1, SVG Export Plug-In . SVG Version: 6.00 Build 0)  -->
<svg version="1.1" xmlns="http://www.w3.org/2000/svg" xmlns:xlink="http://www.w3.org/1999/xlink" x="0px" y="0px"
	 viewBox="0 0 1200 1200" style="enable-background:new 0 0 1200 1200;" xml:space="preserve">
<style type="text/css">
	.st0{display:none;}
	.st1{fill:url(#SVGID_1_);}
	.st2{fill:#201600;}
</style>
<g id="shadows" class="st0">
	
		<radialGradient id="SVGID_1_" cx="1000" cy="997.9299" r="200" gradientTransform="matrix(3 0 0 2.9948 -2400.0002 -2389.6611)" gradientUnits="userSpaceOnUse">
		<stop  offset="0" style="stop-color:#FFFFFF"/>
		<stop  offset="0.5767" style="stop-color:#FDFDFD"/>
		<stop  offset="0.7844" style="stop-color:#F6F6F6"/>
		<stop  offset="0.932" style="stop-color:#EBEBEB"/>
		<stop  offset="1" style="stop-color:#E2E2E2"/>
	</radialGradient>
	<rect class="st1" width="1200" height="1197.93"/>
</g>
<g id="Слой_1">
	<g>
		<path class="st2" d="M600,306.85c-5.77,0.75-11.26,0.9-16.79,0.32c-6.42-0.63-12.77-2.17-19.77-4.98
			c-1.93-0.78-3.53-0.36-4.63,0.63c-0.5,0.32-0.94,0.73-1.28,1.2c-1.08,1.46-1.27,3.54,0.36,5.53c8.1,9.8,13.15,20.2,15.29,31.89
			c0.84,4.51,1.05,8.91,1.63,13.33c0.68,4.48,1.62,8.92,3.66,13.3c4.15,8.98,12.01,17.06,21.52,21.08
			c9.51-4.03,17.37-12.1,21.53-21.08c2.03-4.38,2.98-8.81,3.66-13.3c0.58-4.42,0.8-8.82,1.63-13.33
			c2.14-11.7,7.19-22.09,15.29-31.89c1.64-1.98,1.44-4.06,0.36-5.53c-0.35-0.47-0.78-0.88-1.28-1.2c-1.09-0.98-2.7-1.4-4.62-0.63
			c-7,2.82-13.35,4.36-19.77,4.98C611.26,307.75,605.77,307.59,600,306.85z M853.42,452.91c-3.53-4.61-6.41-9.29-8.68-14.35
			c-2.66-5.87-4.5-12.13-5.56-19.58c-0.29-2.05-1.46-3.23-2.86-3.68c-0.53-0.27-1.1-0.45-1.69-0.51c-1.81-0.2-3.71,0.67-4.61,3.08
			c-4.45,11.9-10.95,21.47-20.02,29.16c-3.49,2.98-7.2,5.36-10.75,8.07c-3.55,2.83-6.92,5.86-9.71,9.81
			c-5.72,8.08-8.79,18.91-7.53,29.15c8.25,6.21,19.18,8.97,29.05,8.07c4.82-0.43,9.13-1.83,13.36-3.49
			c4.13-1.71,8.05-3.72,12.38-5.25c11.21-4,22.76-4.83,35.31-2.73c2.54,0.43,4.24-0.79,4.98-2.45c0.24-0.54,0.37-1.12,0.4-1.71
			c0.31-1.44-0.13-3.03-1.77-4.31c-5.94-4.64-10.45-9.36-14.21-14.6C858.27,463.09,855.65,458.26,853.42,452.91z M853.42,745.02
			c2.23-5.36,4.85-10.19,8.11-14.68c3.76-5.24,8.27-9.96,14.21-14.6c1.64-1.28,2.07-2.88,1.77-4.31c-0.03-0.59-0.16-1.17-0.4-1.71
			c-0.73-1.66-2.44-2.87-4.98-2.45c-12.55,2.1-24.1,1.27-35.31-2.73c-4.33-1.53-8.25-3.55-12.38-5.25
			c-4.23-1.65-8.55-3.05-13.36-3.49c-9.87-0.9-20.8,1.85-29.05,8.07c-1.26,10.24,1.81,21.07,7.53,29.15
			c2.79,3.95,6.16,6.98,9.71,9.81c3.54,2.71,7.25,5.1,10.75,8.07c9.08,7.7,15.57,17.26,20.02,29.16c0.9,2.41,2.8,3.28,4.61,3.08
			c0.58-0.06,1.16-0.24,1.69-0.51c1.4-0.45,2.56-1.63,2.86-3.68c1.06-7.46,2.89-13.72,5.56-19.58
			C847.01,754.31,849.89,749.64,853.42,745.02z M600,891.08c5.77-0.75,11.26-0.9,16.79-0.32c6.42,0.63,12.77,2.17,19.77,4.98
			c1.93,0.78,3.53,0.36,4.62-0.63c0.5-0.32,0.94-0.73,1.28-1.2c1.08-1.46,1.27-3.54-0.36-5.53c-8.1-9.8-13.15-20.2-15.29-31.89
			c-0.84-4.51-1.05-8.91-1.63-13.33c-0.68-4.48-1.62-8.92-3.66-13.3c-4.15-8.98-12.01-17.06-21.53-21.08
			c-9.51,4.03-17.37,12.1-21.52,21.08c-2.03,4.38-2.98,8.81-3.66,13.3c-0.58,4.42-0.8,8.82-1.63,13.33
			c-2.14,11.7-7.19,22.09-15.29,31.89c-1.64,1.98-1.44,4.06-0.36,5.53c0.35,0.47,0.78,0.88,1.28,1.2c1.09,0.98,2.7,1.4,4.63,0.63
			c7-2.82,13.34-4.36,19.77-4.98C588.74,890.18,594.23,890.34,600,891.08z M346.58,745.02c3.53,4.61,6.41,9.29,8.68,14.35
			c2.66,5.87,4.5,12.13,5.56,19.58c0.29,2.05,1.46,3.23,2.86,3.68c0.53,0.27,1.1,0.45,1.69,0.51c1.81,0.2,3.71-0.67,4.61-3.08
			c4.45-11.9,10.95-21.47,20.02-29.16c3.49-2.98,7.2-5.36,10.74-8.07c3.55-2.83,6.92-5.86,9.71-9.81
			c5.72-8.08,8.79-18.91,7.53-29.15c-8.25-6.21-19.18-8.97-29.05-8.07c-4.82,0.43-9.13,1.83-13.36,3.49
			c-4.13,1.71-8.05,3.72-12.38,5.25c-11.22,4-22.76,4.83-35.31,2.73c-2.54-0.43-4.25,0.79-4.98,2.45c-0.24,0.54-0.38,1.12-0.4,1.71
			c-0.31,1.44,0.13,3.03,1.77,4.31c5.94,4.64,10.45,9.36,14.21,14.6C341.73,734.84,344.35,739.67,346.58,745.02z M346.58,452.91
			c-2.23,5.36-4.85,10.19-8.11,14.68c-3.76,5.24-8.27,9.96-14.21,14.6c-1.64,1.28-2.07,2.88-1.77,4.31c0.03,0.59,0.16,1.17,0.4,1.71
			c0.73,1.66,2.44,2.87,4.98,2.45c12.55-2.1,24.1-1.27,35.31,2.73c4.33,1.53,8.25,3.55,12.38,5.25c4.23,1.65,8.55,3.05,13.36,3.49
			c9.87,0.9,20.8-1.86,29.05-8.07c1.26-10.24-1.81-21.07-7.53-29.15c-2.78-3.95-6.16-6.98-9.71-9.81c-3.54-2.71-7.25-5.1-10.74-8.07
			c-9.08-7.7-15.57-17.26-20.02-29.16c-0.9-2.41-2.8-3.28-4.61-3.08c-0.58,0.06-1.16,0.24-1.69,0.51c-1.4,0.45-2.57,1.63-2.86,3.68
			c-1.06,7.46-2.89,13.72-5.56,19.58C352.99,443.62,350.11,448.3,346.58,452.91z M600,379.21c-1.54-0.82-3.13-1.84-4.76-3.08
			c-5.65-4.29-8.4-9.73-9.92-15.52c-1.37-5.69-1.54-11.73-2.39-17.37c-1.51-9.94-4.91-19.29-10.17-28.17l-0.24-0.45
			c9.28,2.3,18.09,2.71,27.49,1.68c9.4,1.03,18.21,0.62,27.49-1.68l-0.24,0.45c-5.26,8.88-8.67,18.23-10.17,28.17
			c-0.85,5.63-1.02,11.68-2.39,17.37c-1.52,5.79-4.27,11.23-9.92,15.52C603.13,377.36,601.54,378.39,600,379.21z M790.64,489.09
			c-0.06-1.74,0.03-3.63,0.29-5.66c0.89-7.03,4.24-12.13,8.51-16.34c4.25-4.03,9.41-7.2,13.87-10.75
			c7.87-6.27,14.27-13.89,19.35-22.88l0.27-0.43c2.64,9.18,6.69,17,12.28,24.61c3.8,8.64,8.56,16.05,15.2,22.92l-0.51,0.02
			c-10.33-0.11-20.15,1.62-29.52,5.29c-5.31,2.08-10.64,4.96-16.26,6.61c-5.78,1.58-11.88,1.93-18.42-0.81
			C793.81,490.87,792.13,490.01,790.64,489.09z M790.64,708.84c1.48-0.92,3.17-1.79,5.06-2.58c6.54-2.74,12.64-2.4,18.42-0.81
			c5.62,1.66,10.95,4.53,16.26,6.61c9.38,3.67,19.19,5.39,29.52,5.29l0.51,0.02c-6.64,6.87-11.4,14.28-15.2,22.92
			c-5.59,7.61-9.64,15.43-12.28,24.61l-0.27-0.43c-5.08-8.99-11.48-16.61-19.35-22.88c-4.46-3.55-9.62-6.72-13.87-10.75
			c-4.27-4.21-7.61-9.31-8.51-16.34C790.68,712.47,790.59,710.59,790.64,708.84z M600,818.72c1.54,0.82,3.13,1.84,4.76,3.08
			c5.65,4.29,8.4,9.73,9.92,15.52c1.37,5.69,1.54,11.73,2.39,17.37c1.5,9.94,4.91,19.29,10.17,28.17l0.24,0.45
			c-9.28-2.3-18.09-2.71-27.49-1.68c-9.4-1.03-18.21-0.62-27.49,1.68l0.24-0.45c5.26-8.88,8.67-18.23,10.17-28.17
			c0.85-5.63,1.02-11.68,2.39-17.37c1.52-5.79,4.27-11.23,9.92-15.52C596.87,820.57,598.46,819.54,600,818.72z M409.36,708.84
			c0.06,1.74-0.03,3.63-0.29,5.66c-0.89,7.03-4.24,12.13-8.51,16.34c-4.25,4.03-9.41,7.2-13.87,10.75
			c-7.87,6.27-14.27,13.89-19.35,22.88l-0.27,0.43c-2.64-9.18-6.69-17-12.28-24.61c-3.81-8.64-8.56-16.05-15.2-22.92l0.51-0.02
			c10.33,0.11,20.15-1.62,29.52-5.29c5.31-2.08,10.64-4.96,16.26-6.61c5.78-1.58,11.88-1.93,18.42,0.81
			C406.19,707.06,407.87,707.92,409.36,708.84z M409.36,489.09c-1.48,0.92-3.17,1.79-5.06,2.58c-6.54,2.74-12.64,2.4-18.42,0.81
			c-5.62-1.66-10.95-4.53-16.26-6.61c-9.38-3.67-19.19-5.39-29.52-5.29l-0.51-0.02c6.64-6.87,11.4-14.28,15.2-22.92
			c5.59-7.61,9.64-15.43,12.28-24.61l0.27,0.43c5.08,8.99,11.48,16.61,19.35,22.88c4.46,3.55,9.62,6.72,13.87,10.75
			c4.27,4.21,7.61,9.31,8.51,16.34C409.32,485.46,409.41,487.34,409.36,489.09z"/>
		<path class="st2" d="M600,487.64c-3.09,0.16-6.45,0.8-10.3,1.93c-1.83,0.54-3.08,1.49-3.88,2.6c-0.57,0.5-1.1,1.06-1.56,1.75
			c-6.59,9.82-5.82,18.14-3.25,27.97c3.37,13.02,7.71,25.6,12.65,37.88c-4.96,1.33-9.98,1.92-15.01,2.27
			c-2.82,4.18-5.84,8.22-9.48,11.84c-8.17-10.41-16.92-20.45-26.53-29.88c-7.24-7.13-14.08-11.97-25.89-11.18
			c-0.83,0.05-1.58,0.24-2.3,0.48c-1.37,0.13-2.82,0.74-4.2,2.05c-2.91,2.76-5.14,5.34-6.82,7.94c-1.41,2.75-2.53,5.98-3.47,9.87
			c-0.45,1.85-0.25,3.41,0.32,4.66c0.15,0.74,0.37,1.48,0.73,2.22c5.22,10.61,12.83,14.1,22.64,16.8c12.98,3.6,26.06,6.14,39.19,8
			c-1.33,4.96-3.32,9.59-5.53,14.12c2.22,4.53,4.21,9.16,5.53,14.12c-13.12,1.86-26.2,4.4-39.19,8c-9.81,2.69-17.42,6.19-22.64,16.8
			c-0.37,0.74-0.58,1.49-0.73,2.22c-0.57,1.25-0.77,2.81-0.32,4.66c0.94,3.89,2.06,7.11,3.47,9.87c1.68,2.59,3.92,5.18,6.82,7.94
			c1.38,1.31,2.83,1.92,4.2,2.05c0.72,0.24,1.47,0.42,2.3,0.48c11.81,0.79,18.65-4.04,25.89-11.18
			c9.62-9.42,18.36-19.46,26.53-29.88c3.64,3.63,6.66,7.66,9.48,11.84c5.04,0.35,10.05,0.94,15.01,2.27
			c-4.95,12.27-9.29,24.85-12.65,37.88c-2.57,9.83-3.34,18.15,3.25,27.97c0.46,0.69,1,1.25,1.56,1.75c0.8,1.12,2.05,2.07,3.88,2.6
			c3.85,1.13,7.2,1.77,10.3,1.93c3.09-0.16,6.45-0.8,10.3-1.93c1.83-0.54,3.08-1.49,3.88-2.6c0.56-0.5,1.1-1.06,1.56-1.75
			c6.59-9.82,5.82-18.14,3.25-27.97c-3.37-13.02-7.7-25.6-12.65-37.88c4.96-1.33,9.98-1.92,15.01-2.27
			c2.82-4.18,5.84-8.22,9.48-11.84c8.17,10.41,16.92,20.45,26.53,29.88c7.24,7.13,14.08,11.97,25.89,11.18
			c0.83-0.05,1.58-0.24,2.3-0.48c1.37-0.13,2.82-0.74,4.2-2.05c2.91-2.76,5.14-5.34,6.82-7.94c1.41-2.75,2.53-5.98,3.47-9.87
			c0.45-1.85,0.25-3.41-0.32-4.66c-0.15-0.74-0.37-1.48-0.73-2.22c-5.22-10.61-12.83-14.1-22.64-16.8c-12.98-3.6-26.06-6.14-39.19-8
			c1.33-4.96,3.32-9.59,5.53-14.12c-2.22-4.53-4.21-9.16-5.53-14.12c13.12-1.86,26.2-4.4,39.19-8c9.81-2.69,17.42-6.19,22.64-16.8
			c0.37-0.74,0.58-1.49,0.73-2.22c0.57-1.25,0.77-2.81,0.32-4.66c-0.94-3.89-2.06-7.11-3.47-9.87c-1.68-2.59-3.92-5.18-6.82-7.94
			c-1.38-1.31-2.83-1.92-4.2-2.05c-0.71-0.24-1.47-0.42-2.3-0.48c-11.81-0.79-18.65,4.04-25.89,11.18
			c-9.62,9.42-18.36,19.46-26.53,29.88c-3.64-3.63-6.66-7.66-9.48-11.84c-5.04-0.35-10.05-0.94-15.01-2.27
			c4.95-12.27,9.29-24.85,12.65-37.88c2.57-9.83,3.34-18.15-3.25-27.97c-0.46-0.69-1-1.25-1.56-1.75c-0.8-1.12-2.05-2.07-3.88-2.6
			C606.45,488.44,603.09,487.8,600,487.64z M600,219.29c-9.48,0.24-16.45,8.13-17.85,17.17c-0.16,0.07-0.3,0.13-0.46,0.19
			c-7.53-4.3-13.44-12.08-11.22-20.7l0.04-0.25c3.91-9.49,11.91-15.86,21.23-17.38c2.7-0.42,5.48-0.46,8.26-0.12
			c2.78-0.34,5.56-0.29,8.26,0.12c9.32,1.52,17.31,7.88,21.23,17.38l0.04,0.25c2.22,8.62-3.69,16.39-11.22,20.7
			c-0.16-0.07-0.3-0.13-0.46-0.19C616.45,227.42,609.48,219.53,600,219.29z M929.38,409.13c-4.95-8.07-15.27-10.15-23.82-6.85
			c-0.14-0.11-0.26-0.2-0.4-0.3c-0.03-8.67,3.76-17.66,12.34-20.05l0.23-0.09c10.19-1.36,19.71,2.36,25.69,9.66
			c1.71,2.13,3.14,4.51,4.24,7.08c1.69,2.24,3.03,4.66,4.02,7.2c3.34,8.82,1.82,18.91-4.46,27.04l-0.2,0.16
			c-6.36,6.23-16.06,5.01-23.56,0.65c-0.02-0.17-0.04-0.32-0.06-0.49C930.55,427.41,933.9,417.44,929.38,409.13z M929.38,788.8
			c4.53-8.31,1.17-18.28-5.97-24.01c0.02-0.17,0.04-0.32,0.06-0.49c7.5-4.36,17.2-5.58,23.56,0.65l0.2,0.16
			c6.28,8.13,7.8,18.22,4.46,27.04c-0.99,2.55-2.34,4.97-4.02,7.2c-1.1,2.58-2.53,4.95-4.24,7.08c-5.98,7.3-15.5,11.03-25.69,9.66
			l-0.23-0.09c-8.59-2.39-12.38-11.38-12.34-20.05c0.14-0.1,0.26-0.19,0.4-0.3C914.1,798.96,924.43,796.87,929.38,788.8z
			 M600,978.64c9.48-0.24,16.45-8.13,17.85-17.17c0.16-0.07,0.3-0.13,0.46-0.19c7.53,4.3,13.44,12.08,11.22,20.7l-0.04,0.25
			c-3.91,9.49-11.91,15.86-21.23,17.38c-2.7,0.42-5.48,0.46-8.26,0.12c-2.78,0.34-5.56,0.29-8.26-0.12
			c-9.32-1.52-17.31-7.88-21.23-17.38l-0.04-0.25c-2.22-8.62,3.69-16.39,11.22-20.7c0.16,0.07,0.29,0.13,0.46,0.19
			C583.55,970.51,590.52,978.4,600,978.64z M270.62,788.8c4.95,8.07,15.27,10.15,23.82,6.85c0.14,0.11,0.26,0.2,0.4,0.3
			c0.03,8.67-3.76,17.66-12.34,20.05l-0.23,0.09c-10.19,1.36-19.71-2.36-25.69-9.66c-1.71-2.13-3.14-4.51-4.24-7.08
			c-1.69-2.24-3.03-4.66-4.02-7.2c-3.34-8.82-1.82-18.91,4.46-27.04l0.19-0.16c6.36-6.23,16.06-5.01,23.56-0.65
			c0.02,0.17,0.04,0.32,0.06,0.49C269.45,770.52,266.1,780.49,270.62,788.8z M270.62,409.13c-4.53,8.31-1.17,18.28,5.97,24.01
			c-0.02,0.17-0.04,0.32-0.06,0.49c-7.5,4.36-17.2,5.58-23.56-0.65l-0.19-0.16c-6.28-8.13-7.8-18.22-4.46-27.04
			c0.99-2.55,2.34-4.97,4.02-7.2c1.1-2.58,2.53-4.95,4.24-7.08c5.98-7.3,15.5-11.03,25.69-9.66l0.23,0.09
			c8.59,2.39,12.38,11.38,12.34,20.05c-0.14,0.1-0.26,0.19-0.4,0.3C285.9,398.97,275.57,401.06,270.62,409.13z M524.63,468.64
			c14.62,8.32,31.38,9.91,46.45,6.65c2.9-0.64,3.37-3.05,2.39-5.15c-0.19-0.86-0.68-1.76-1.59-2.6
			c-8.45-7.78-13.24-16.2-15.74-25.08c-2.52-8.89-2.07-17.87-1.06-27.2c0.55-4.65,1.32-9.34,2.14-14.05
			c0.8-4.73,1.66-9.47,2.71-14.03c1.92-9.22,3.34-18.45,2.87-27.61c-0.27-5.96-1.33-12.13-2.93-17.99
			c-1.59-5.86-4.04-11.62-7.59-17.06c-11.17-17.33-35.8-28.96-36.86-51.12l0-0.03c20.95-6.06,39.54,13.53,59.42,19.08
			c8.53,2.44,17.03,2.84,25.18,1.87c8.15,0.97,16.65,0.57,25.18-1.87c19.88-5.55,38.47-25.14,59.42-19.08l0,0.03
			c-1.06,22.16-25.69,33.79-36.86,51.12c-3.55,5.44-6,11.2-7.59,17.06c-1.59,5.86-2.65,12.03-2.93,17.99
			c-0.47,9.15,0.94,18.39,2.87,27.61c1.05,4.56,1.91,9.3,2.71,14.03c0.82,4.71,1.59,9.41,2.14,14.05c1.01,9.34,1.45,18.31-1.06,27.2
			c-2.5,8.88-7.29,17.3-15.74,25.08c-0.91,0.84-1.41,1.74-1.59,2.6c-0.98,2.09-0.51,4.51,2.39,5.15
			c15.07,3.26,31.83,1.66,46.45-6.65c0.1,16.79,7.09,32.09,17.45,43.48c2,2.19,4.33,1.39,5.66-0.5c0.66-0.59,1.19-1.47,1.46-2.68
			c2.52-11.19,7.43-19.55,13.89-26.15c6.45-6.62,14.46-10.73,23.07-14.52c4.3-1.85,8.76-3.53,13.26-5.18
			c4.5-1.67,9.05-3.3,13.52-4.67c8.96-2.95,17.68-6.34,25.38-11.32c5.03-3.21,9.86-7.22,14.15-11.52c4.29-4.3,8.06-9.3,11-15.09
			c9.45-18.32,7.22-45.43,25.92-57.43l0.02-0.02c15.73,15.08,8.03,40.95,13.16,60.91c2.15,8.59,6.05,16.14,10.96,22.7
			c3.23,7.52,7.83,14.68,14.21,20.83c14.76,14.41,41.05,20.69,46.26,41.83l-0.03,0.01c-19.76,10.16-42.16-5.31-62.78-6.31
			c-6.49-0.35-12.72,0.41-18.6,1.97c-5.88,1.55-11.77,3.72-17.07,6.47c-8.18,4.17-15.48,10.01-22.52,16.28
			c-3.43,3.18-7.12,6.3-10.82,9.35c-3.68,3.07-7.36,6.08-11.12,8.88c-7.59,5.54-15.16,10.41-24.13,12.68
			c-8.96,2.28-18.66,2.35-29.63-1.07c-1.19-0.37-2.21-0.35-3.05-0.08c-2.3,0.2-4.17,1.81-3.27,4.64
			c4.7,14.66,14.47,28.35,28.99,36.83c-14.52,8.48-24.29,22.17-28.99,36.83c-0.9,2.83,0.96,4.44,3.27,4.64
			c0.84,0.27,1.87,0.29,3.05-0.08c10.97-3.42,20.67-3.35,29.63-1.07c8.97,2.27,16.54,7.14,24.13,12.68
			c3.76,2.79,7.44,5.81,11.12,8.87c3.7,3.05,7.39,6.17,10.82,9.35c7.04,6.27,14.34,12.11,22.52,16.28
			c5.3,2.74,11.19,4.91,17.07,6.47c5.88,1.55,12.1,2.32,18.6,1.97c20.62-0.99,43.02-16.47,62.78-6.31l0.03,0.01
			c-5.22,21.14-31.51,27.42-46.26,41.83c-6.38,6.15-10.98,13.31-14.21,20.83c-4.91,6.56-8.82,14.11-10.96,22.7
			c-5.13,19.97,2.57,45.83-13.16,60.91l-0.02-0.02c-18.7-12-16.47-39.1-25.92-57.43c-2.94-5.79-6.72-10.79-11-15.09
			c-4.29-4.31-9.11-8.31-14.15-11.52c-7.7-4.99-16.42-8.38-25.38-11.32c-4.48-1.37-9.02-3-13.52-4.67
			c-4.5-1.65-8.96-3.33-13.26-5.18c-8.6-3.8-16.61-7.9-23.07-14.52c-6.46-6.6-11.37-14.95-13.89-26.15
			c-0.27-1.21-0.8-2.08-1.46-2.68c-1.33-1.89-3.66-2.7-5.66-0.5c-10.36,11.4-17.36,26.69-17.45,43.48
			c-14.62-8.32-31.38-9.91-46.45-6.65c-2.9,0.64-3.37,3.05-2.39,5.15c0.19,0.86,0.68,1.76,1.59,2.6
			c8.45,7.78,13.24,16.2,15.74,25.08c2.52,8.89,2.07,17.87,1.06,27.2c-0.55,4.65-1.32,9.34-2.14,14.05
			c-0.8,4.73-1.66,9.47-2.71,14.03c-1.93,9.22-3.34,18.45-2.87,27.6c0.27,5.96,1.33,12.13,2.93,17.99
			c1.59,5.86,4.04,11.62,7.59,17.06c11.17,17.33,35.8,28.96,36.86,51.12l0,0.03c-20.95,6.06-39.54-13.53-59.42-19.08
			c-8.53-2.44-17.03-2.84-25.18-1.87c-8.14-0.97-16.65-0.57-25.18,1.87c-19.88,5.55-38.47,25.14-59.42,19.08l0-0.03
			c1.06-22.16,25.69-33.79,36.86-51.12c3.55-5.44,6-11.2,7.59-17.06c1.59-5.86,2.65-12.03,2.93-17.99
			c0.47-9.15-0.94-18.39-2.87-27.6c-1.05-4.56-1.91-9.3-2.71-14.03c-0.82-4.71-1.59-9.41-2.14-14.05
			c-1.01-9.34-1.45-18.31,1.06-27.2c2.5-8.88,7.29-17.3,15.74-25.08c0.91-0.84,1.41-1.74,1.59-2.6c0.98-2.09,0.51-4.51-2.39-5.15
			c-15.07-3.26-31.83-1.66-46.45,6.65c-0.09-16.79-7.09-32.09-17.45-43.48c-2-2.19-4.33-1.39-5.66,0.5
			c-0.66,0.59-1.19,1.47-1.46,2.68c-2.52,11.19-7.43,19.55-13.89,26.15c-6.45,6.62-14.46,10.73-23.07,14.52
			c-4.3,1.85-8.76,3.53-13.26,5.18c-4.5,1.67-9.05,3.3-13.52,4.67c-8.96,2.95-17.68,6.34-25.38,11.32
			c-5.03,3.21-9.86,7.22-14.15,11.52c-4.29,4.3-8.06,9.3-11,15.09c-9.45,18.32-7.22,45.43-25.92,57.43l-0.02,0.02
			c-15.73-15.08-8.03-40.95-13.16-60.91c-2.15-8.59-6.05-16.14-10.96-22.7c-3.23-7.52-7.83-14.68-14.21-20.83
			c-14.76-14.41-41.05-20.69-46.26-41.83l0.03-0.01c19.76-10.16,42.16,5.31,62.78,6.31c6.49,0.35,12.72-0.41,18.6-1.97
			c5.88-1.55,11.77-3.72,17.07-6.47c8.18-4.17,15.48-10.01,22.51-16.28c3.43-3.18,7.12-6.3,10.82-9.35
			c3.68-3.07,7.37-6.08,11.12-8.87c7.59-5.54,15.16-10.41,24.13-12.68c8.96-2.28,18.66-2.35,29.63,1.07
			c1.19,0.37,2.21,0.35,3.05,0.08c2.3-0.2,4.17-1.81,3.27-4.64c-4.7-14.66-14.47-28.35-28.99-36.83
			c14.52-8.48,24.29-22.17,28.99-36.83c0.9-2.83-0.96-4.44-3.27-4.64c-0.84-0.27-1.87-0.29-3.05,0.08
			c-10.97,3.42-20.67,3.35-29.63,1.07c-8.97-2.27-16.54-7.14-24.13-12.68c-3.76-2.79-7.44-5.81-11.12-8.88
			c-3.7-3.05-7.39-6.17-10.82-9.35c-7.04-6.27-14.34-12.11-22.51-16.28c-5.3-2.74-11.19-4.91-17.07-6.47
			c-5.88-1.55-12.1-2.32-18.6-1.97c-20.62,0.99-43.02,16.47-62.78,6.31l-0.03-0.01c5.22-21.14,31.51-27.42,46.26-41.83
			c6.38-6.15,10.98-13.31,14.21-20.83c4.91-6.56,8.82-14.11,10.96-22.7c5.13-19.97-2.57-45.83,13.16-60.91l0.02,0.02
			c18.7,12,16.47,39.1,25.92,57.43c2.94,5.79,6.72,10.79,11,15.09c4.29,4.31,9.11,8.31,14.15,11.52c7.7,4.99,16.42,8.38,25.38,11.32
			c4.48,1.37,9.02,3,13.52,4.67c4.5,1.65,8.96,3.33,13.26,5.18c8.6,3.8,16.61,7.9,23.07,14.52c6.46,6.6,11.37,14.95,13.89,26.15
			c0.27,1.21,0.8,2.08,1.46,2.68c1.33,1.89,3.66,2.7,5.66,0.5C517.54,500.73,524.54,485.44,524.63,468.64z M600,188.58
			c-3.44-0.36-6.89-0.26-10.26,0.27c-11.01,1.52-20.35,8.29-26.12,18.1l-0.27-0.11c-9.45-2.89-18.85-4.77-28.4-5.74
			c-4.78-0.48-9.6-0.73-14.48-0.76c-4.85,0-9.63,0.34-14.57,0.83c-26.32,2.65-49.88,1.64-64.18-24.15
			c-4.78-8.7-3.15-20.76,7.75-25.7c4.65-2.13,10.87-1.63,13.65,2.78c4.43,6.98-2.11,13.46-7.22,18.05
			c-2.73,2.46-2.29,5.97-0.52,7.97c0.25,0.39,0.55,0.77,0.94,1.12c13.48,11.7,28.82,7.23,39.98-3.25
			c11.51-10.23,18.81-27.02,15.36-41.64c-2.46-10.19-7.26-17.67-13.87-22.89c-6.63-5.25-14.88-8.07-23.71-8.62
			c-17.62-1.15-38.13,6.53-51.69,20.32c-4.8-6.7-10.02-13.03-15.24-19.26c-3.74-4.46-8.19-10.34-15.44-7.68
			c-6.6,2.52-8.26,9.61-8.7,15.68c-0.73,10.07-1.15,20.05-1.53,29.93c-9.83-5.94-20.58-11.37-32.12-13.47
			c-5.33-1.02-13.54-1.62-19.38,1.76c-5.84,3.36-9.43,10.76-11.21,15.87c-3.95,11.02-4.61,23.03-4.38,34.5
			c-8.77-4.61-17.63-9.24-26.73-13.64c-5.48-2.66-12.46-4.76-17.95-0.32c-5.93,4.93-3.05,11.72-1.05,17.19
			c2.79,7.63,5.67,15.31,9.08,22.81c-18.75,4.83-35.66,18.72-43.47,34.53c-3.94,7.91-5.62,16.45-4.38,24.8
			c1.23,8.32,5.31,16.21,12.92,23.43c10.96,10.29,29.17,12.37,43.8,7.54c14.68-4.41,26.22-15.44,22.81-32.94
			c-0.1-0.52-0.29-0.96-0.5-1.37c-0.85-2.54-3.68-4.67-7.17-3.54c-6.53,2.12-15.43,4.53-19.27-2.78
			c-2.43-4.62,0.24-10.24,4.42-13.19c9.74-6.95,21.01-2.33,26.17,6.15c15.23,25.25,4.32,46.13-11.14,67.56
			c-2.9,4.02-5.58,7.98-8,12.18c-2.42,4.24-4.61,8.53-6.58,12.9c-3.94,8.74-7,17.81-9.22,27.43l-0.04,0.28
			c-11.4,0.08-21.94,4.77-28.76,13.53c-2.14,2.65-3.95,5.58-5.36,8.73c-2.03,2.8-3.67,5.83-4.89,9
			c-4.18,10.28-2.98,21.73,2.65,31.63l-0.23,0.17c-7.23,6.73-13.57,13.91-19.18,21.69c-2.81,3.89-5.44,7.93-7.91,12.14
			c-2.43,4.19-4.52,8.49-6.56,13.01c-10.86,24.08-23.52,43.95-53.04,43.41c-9.93-0.22-19.59-7.65-18.42-19.55
			c0.47-5.08,4.02-10.21,9.24-10.41c8.27-0.34,10.62,8.56,12.05,15.26c0.77,3.59,4.03,4.97,6.66,4.43c0.47-0.02,0.94-0.08,1.44-0.25
			c16.89-5.8,20.68-21.3,17.17-36.19c-3.12-15.07-14.03-29.77-28.44-34.1c-10.07-2.97-18.96-2.56-26.79,0.54
			c-7.87,3.11-14.44,8.83-19.33,16.19c-9.8,14.66-13.4,36.23-8.22,54.85c-8.21,0.8-16.31,2.15-24.33,3.55
			c-5.74,1.01-13.07,1.91-14.38,9.5c-1.11,6.97,4.2,11.95,9.25,15.36c8.37,5.67,16.82,11.02,25.2,16.29
			c-10.07,5.53-20.15,12.11-27.74,21.04c-3.55,4.1-8.17,10.9-8.16,17.63c-0.01,6.73,4.62,13.53,8.16,17.63
			c7.59,8.93,17.67,15.51,27.74,21.04c-8.38,5.28-16.83,10.62-25.2,16.29c-5.05,3.41-10.36,8.39-9.25,15.36
			c1.32,7.59,8.64,8.5,14.38,9.5c8.01,1.4,16.11,2.75,24.33,3.55c-5.18,18.62-1.58,40.19,8.22,54.85
			c4.89,7.36,11.46,13.08,19.33,16.19c7.83,3.1,16.72,3.51,26.79,0.54c14.41-4.33,25.32-19.03,28.44-34.1
			c3.51-14.89-0.28-30.39-17.17-36.19c-0.5-0.17-0.98-0.23-1.44-0.25c-2.62-0.53-5.89,0.84-6.66,4.43
			c-1.43,6.71-3.78,15.6-12.05,15.26c-5.22-0.2-8.76-5.33-9.24-10.41c-1.17-11.89,8.49-19.33,18.42-19.55
			c29.52-0.54,42.18,19.33,53.04,43.41c2.04,4.52,4.14,8.82,6.56,13.01c2.47,4.21,5.1,8.25,7.91,12.14
			c5.62,7.78,11.95,14.96,19.18,21.69l0.23,0.17c-5.63,9.9-6.83,21.35-2.65,31.63c1.23,3.18,2.86,6.2,4.89,9
			c1.41,3.16,3.22,6.09,5.36,8.73c6.83,8.75,17.37,13.44,28.76,13.53l0.04,0.28c2.22,9.62,5.28,18.68,9.22,27.43
			c1.97,4.37,4.16,8.66,6.58,12.9c2.42,4.2,5.11,8.16,8,12.18c15.46,21.43,26.37,42.3,11.14,67.56
			c-5.15,8.48-16.43,13.11-26.17,6.15c-4.17-2.95-6.85-8.58-4.42-13.19c3.84-7.32,12.73-4.9,19.27-2.78c3.5,1.13,6.33-1,7.17-3.54
			c0.21-0.41,0.4-0.86,0.5-1.37c3.41-17.5-8.14-28.53-22.81-32.94c-14.64-4.84-32.84-2.75-43.8,7.54
			c-7.61,7.22-11.7,15.11-12.92,23.43c-1.24,8.35,0.44,16.89,4.38,24.8c7.82,15.81,24.73,29.7,43.47,34.53
			c-3.41,7.5-6.29,15.18-9.08,22.81c-2,5.47-4.88,12.25,1.05,17.19c5.49,4.44,12.47,2.34,17.95-0.32c9.1-4.4,17.97-9.03,26.73-13.64
			c-0.24,11.47,0.43,23.48,4.38,34.5c1.78,5.12,5.37,12.52,11.21,15.88c5.83,3.37,14.05,2.77,19.38,1.76
			c11.54-2.1,22.29-7.53,32.12-13.47c0.39,9.88,0.8,19.86,1.53,29.93c0.44,6.07,2.1,13.15,8.7,15.68
			c7.24,2.66,11.69-3.22,15.44-7.68c5.22-6.23,10.44-12.56,15.24-19.26c13.56,13.79,34.07,21.46,51.69,20.32
			c8.83-0.55,17.08-3.37,23.71-8.62c6.6-5.22,11.41-12.7,13.87-22.89c3.45-14.62-3.85-31.4-15.36-41.64
			c-11.16-10.48-26.5-14.95-39.98-3.25c-0.4,0.35-0.69,0.73-0.94,1.12c-1.77,2-2.21,5.51,0.52,7.97
			c5.11,4.59,11.65,11.07,7.22,18.05c-2.79,4.41-9.01,4.91-13.65,2.78c-10.9-4.94-12.53-17-7.75-25.7
			c14.3-25.79,37.85-26.8,64.18-24.15c4.94,0.49,9.72,0.83,14.57,0.83c4.89-0.03,9.7-0.28,14.48-0.76
			c9.56-0.97,18.95-2.85,28.4-5.74l0.27-0.11c5.77,9.81,15.11,16.58,26.12,18.1c3.37,0.53,6.81,0.63,10.26,0.27
			c3.44,0.36,6.89,0.26,10.26-0.27c11.01-1.52,20.35-8.29,26.12-18.1l0.27,0.11c9.45,2.89,18.85,4.77,28.4,5.74
			c4.78,0.48,9.6,0.73,14.48,0.76c4.85,0,9.63-0.34,14.57-0.83c26.32-2.65,49.88-1.64,64.18,24.15c4.78,8.7,3.15,20.76-7.75,25.7
			c-4.65,2.13-10.87,1.63-13.65-2.78c-4.43-6.98,2.11-13.46,7.22-18.05c2.73-2.46,2.29-5.97,0.52-7.97
			c-0.25-0.39-0.55-0.77-0.94-1.12c-13.48-11.7-28.82-7.23-39.98,3.25c-11.51,10.23-18.81,27.02-15.36,41.64
			c2.46,10.19,7.26,17.67,13.87,22.89c6.63,5.25,14.88,8.07,23.71,8.62c17.62,1.15,38.13-6.53,51.69-20.32
			c4.8,6.7,10.02,13.03,15.24,19.26c3.74,4.46,8.19,10.34,15.44,7.68c6.6-2.52,8.26-9.61,8.7-15.68
			c0.73-10.07,1.15-20.05,1.53-29.93c9.83,5.94,20.58,11.37,32.12,13.47c5.33,1.02,13.54,1.62,19.38-1.76
			c5.84-3.36,9.43-10.76,11.21-15.88c3.95-11.02,4.61-23.03,4.38-34.5c8.77,4.61,17.63,9.24,26.73,13.64
			c5.48,2.66,12.46,4.76,17.95,0.32c5.93-4.93,3.05-11.72,1.05-17.19c-2.79-7.63-5.67-15.31-9.08-22.81
			c18.75-4.83,35.66-18.72,43.47-34.53c3.94-7.91,5.62-16.45,4.38-24.8c-1.23-8.32-5.31-16.21-12.92-23.43
			c-10.96-10.29-29.17-12.37-43.8-7.54c-14.68,4.41-26.22,15.44-22.81,32.94c0.1,0.52,0.29,0.96,0.5,1.37
			c0.85,2.54,3.68,4.67,7.17,3.54c6.53-2.12,15.43-4.53,19.27,2.78c2.43,4.62-0.24,10.24-4.42,13.19
			c-9.74,6.95-21.01,2.33-26.17-6.15c-15.23-25.25-4.32-46.13,11.14-67.56c2.9-4.02,5.58-7.98,8-12.18
			c2.42-4.24,4.61-8.53,6.58-12.9c3.94-8.74,7-17.81,9.22-27.43l0.04-0.28c11.4-0.08,21.94-4.77,28.76-13.53
			c2.14-2.65,3.95-5.58,5.36-8.73c2.03-2.8,3.67-5.83,4.89-9c4.18-10.28,2.98-21.73-2.65-31.63l0.23-0.17
			c7.23-6.73,13.57-13.91,19.18-21.69c2.81-3.89,5.44-7.93,7.91-12.14c2.43-4.19,4.52-8.49,6.56-13.01
			c10.86-24.08,23.52-43.95,53.04-43.41c9.93,0.22,19.59,7.65,18.42,19.55c-0.47,5.08-4.02,10.21-9.24,10.41
			c-8.27,0.34-10.62-8.56-12.05-15.26c-0.77-3.59-4.03-4.97-6.66-4.43c-0.47,0.02-0.94,0.08-1.44,0.25
			c-16.88,5.8-20.68,21.3-17.17,36.19c3.12,15.07,14.03,29.77,28.44,34.1c10.07,2.97,18.96,2.56,26.79-0.54
			c7.87-3.11,14.44-8.83,19.33-16.19c9.8-14.66,13.4-36.23,8.22-54.85c8.21-0.8,16.31-2.15,24.33-3.55
			c5.74-1.01,13.07-1.91,14.38-9.5c1.11-6.97-4.2-11.95-9.25-15.36c-8.37-5.67-16.82-11.02-25.2-16.29
			c10.07-5.53,20.15-12.11,27.74-21.04c3.55-4.1,8.17-10.9,8.16-17.63c0.01-6.73-4.62-13.53-8.16-17.63
			c-7.59-8.93-17.67-15.5-27.74-21.04c8.38-5.28,16.83-10.62,25.2-16.29c5.05-3.41,10.36-8.39,9.25-15.36
			c-1.32-7.59-8.64-8.5-14.38-9.5c-8.01-1.4-16.11-2.75-24.33-3.55c5.18-18.62,1.58-40.19-8.22-54.85
			c-4.89-7.36-11.46-13.08-19.33-16.19c-7.83-3.1-16.72-3.51-26.79-0.54c-14.41,4.33-25.32,19.03-28.44,34.1
			c-3.51,14.89,0.28,30.39,17.17,36.19c0.5,0.17,0.98,0.23,1.44,0.25c2.62,0.53,5.89-0.84,6.66-4.43
			c1.43-6.71,3.78-15.61,12.05-15.26c5.22,0.21,8.76,5.33,9.24,10.41c1.16,11.89-8.49,19.33-18.42,19.55
			c-29.52,0.54-42.18-19.33-53.04-43.41c-2.04-4.52-4.14-8.82-6.56-13.01c-2.47-4.21-5.1-8.25-7.91-12.14
			c-5.62-7.78-11.95-14.96-19.18-21.69l-0.23-0.17c5.62-9.9,6.83-21.35,2.65-31.63c-1.23-3.18-2.86-6.2-4.89-9
			c-1.41-3.16-3.22-6.09-5.36-8.73c-6.83-8.75-17.37-13.44-28.76-13.53l-0.04-0.28c-2.22-9.62-5.28-18.68-9.22-27.43
			c-1.97-4.37-4.16-8.66-6.58-12.9c-2.42-4.2-5.11-8.16-8-12.18c-15.46-21.43-26.37-42.3-11.14-67.56
			c5.15-8.48,16.43-13.11,26.17-6.15c4.17,2.95,6.85,8.58,4.42,13.19c-3.84,7.32-12.73,4.9-19.27,2.78c-3.5-1.13-6.32,1-7.17,3.54
			c-0.21,0.41-0.4,0.86-0.5,1.37c-3.41,17.5,8.14,28.53,22.81,32.94c14.64,4.84,32.84,2.75,43.8-7.54
			c7.61-7.22,11.7-15.11,12.92-23.43c1.24-8.35-0.44-16.9-4.38-24.8c-7.82-15.81-24.73-29.7-43.47-34.53
			c3.41-7.5,6.29-15.18,9.08-22.81c2-5.47,4.88-12.25-1.05-17.19c-5.49-4.44-12.47-2.34-17.95,0.32c-9.1,4.4-17.97,9.03-26.73,13.64
			c0.24-11.47-0.43-23.48-4.38-34.5c-1.78-5.12-5.37-12.52-11.21-15.87c-5.83-3.37-14.05-2.77-19.38-1.76
			c-11.54,2.1-22.29,7.53-32.12,13.47c-0.39-9.88-0.8-19.86-1.53-29.93c-0.44-6.07-2.1-13.15-8.7-15.68
			c-7.24-2.66-11.69,3.22-15.44,7.68c-5.22,6.23-10.44,12.56-15.24,19.26c-13.56-13.79-34.07-21.46-51.69-20.32
			c-8.83,0.55-17.08,3.37-23.71,8.62c-6.6,5.22-11.41,12.7-13.87,22.89c-3.45,14.62,3.85,31.4,15.36,41.64
			c11.16,10.48,26.5,14.95,39.98,3.25c0.4-0.35,0.69-0.73,0.94-1.12c1.78-2,2.21-5.51-0.52-7.97c-5.11-4.59-11.65-11.07-7.22-18.05
			c2.79-4.41,9.01-4.91,13.65-2.78c10.9,4.94,12.53,17,7.75,25.7c-14.29,25.79-37.85,26.8-64.18,24.15
			c-4.94-0.49-9.72-0.83-14.57-0.83c-4.89,0.03-9.71,0.28-14.48,0.76c-9.56,0.97-18.95,2.85-28.4,5.74l-0.27,0.11
			c-5.77-9.81-15.11-16.58-26.12-18.1C606.89,188.32,603.44,188.22,600,188.58z M388.98,234.1c3.59-1.57,7.73-1.99,11.73-1.19
			c28.95,5.78,36.91,27.61,43.01,53.71c4.41,19.51,11.49,36.49,22.8,52.66l0.19,0.22c-3.87,4.47-6.56,9.68-8.02,15.15
			c-5.48-1.47-11.33-1.75-17.15-0.64l-0.1-0.27c-8.37-17.86-19.56-32.47-34.28-46.04c-19.59-18.33-34.55-36.12-25.09-64.04
			C383.39,239.8,385.82,236.42,388.98,234.1z M811.02,234.1c3.16,2.32,5.59,5.69,6.9,9.54c9.46,27.91-5.49,45.71-25.09,64.04
			c-14.72,13.56-25.91,28.18-34.28,46.04l-0.1,0.27c-5.82-1.11-11.67-0.83-17.15,0.64c-1.46-5.47-4.14-10.67-8.02-15.15l0.19-0.22
			c11.31-16.17,18.39-33.15,22.8-52.66c6.1-26.1,14.06-47.93,43.01-53.71C803.28,232.11,807.42,232.53,811.02,234.1z
			 M1022.03,598.96c-0.43,3.89-2.14,7.68-4.83,10.74c-19.49,22.14-42.4,18.1-68.1,10.33c-19.13-5.94-37.4-8.31-57.08-6.62
			l-0.28,0.05c-1.94-5.59-5.12-10.51-9.13-14.51c4.01-4,7.19-8.92,9.13-14.51l0.28,0.05c19.68,1.69,37.95-0.67,57.08-6.62
			c25.69-7.77,48.61-11.81,68.1,10.33C1019.89,591.28,1021.6,595.07,1022.03,598.96z M811.02,963.83
			c-3.59,1.57-7.73,1.99-11.73,1.19c-28.95-5.78-36.91-27.61-43.01-53.71c-4.41-19.51-11.49-36.49-22.8-52.66l-0.19-0.22
			c3.87-4.47,6.56-9.68,8.02-15.15c5.48,1.47,11.33,1.75,17.15,0.64l0.1,0.27c8.37,17.86,19.56,32.47,34.28,46.04
			c19.59,18.33,34.55,36.12,25.09,64.04C816.61,958.13,814.18,961.51,811.02,963.83z M388.98,963.83c-3.16-2.32-5.59-5.69-6.9-9.54
			c-9.46-27.91,5.49-45.71,25.09-64.04c14.72-13.56,25.91-28.18,34.28-46.04l0.1-0.27c5.82,1.11,11.67,0.83,17.15-0.64
			c1.46,5.47,4.14,10.67,8.02,15.15l-0.19,0.22c-11.31,16.17-18.39,33.15-22.8,52.66c-6.1,26.1-14.06,47.93-43.01,53.71
			C396.72,965.82,392.58,965.4,388.98,963.83z M177.97,598.97c0.43-3.89,2.14-7.68,4.83-10.74c19.49-22.14,42.4-18.1,68.1-10.33
			c19.13,5.94,37.4,8.31,57.08,6.62l0.28-0.05c1.94,5.59,5.12,10.51,9.13,14.51c-4.01,4-7.19,8.92-9.13,14.51l-0.28-0.05
			c-19.68-1.69-37.95,0.67-57.08,6.62c-25.69,7.77-48.61,11.81-68.1-10.33C180.11,606.65,178.4,602.86,177.97,598.97z M467.75,370.3
			c-0.08-0.41-0.15-0.82-0.21-1.24c-1.35-9.28,1.9-19.03,9.59-25.75l0.23-0.11c7.84-4.73,17.32-1.3,23.71,4.7
			c-9.74,4.13-15.19,15.15-9.93,25.78c7.43,14.68,29.53,14.95,38.7,5.44c12.51-12.19,7.24-30.91-3.19-45.18
			c-8.49-11.56-20.4-19.96-29.73-30.89c-13.34-15.72-13.23-31.43-9.71-50.13l0.01-0.03c3.8-2.17,7.56-4.14,11.34-5.78
			c3.8-1.63,7.81-2.78,11.77-3.55c7.97-1.51,16.17-1.16,25.06,2.09c13.4,4.93,25,14,38.35,18.87c8.48,3.1,17.95,4.7,26.25,3.54
			c8.3,1.16,17.78-0.44,26.25-3.54c13.35-4.87,24.95-13.94,38.35-18.87c8.88-3.25,17.09-3.59,25.06-2.09
			c3.96,0.77,7.97,1.92,11.77,3.55c3.78,1.64,7.54,3.61,11.34,5.78l0.01,0.03c3.51,18.7,3.63,34.41-9.71,50.13
			c-9.33,10.92-21.25,19.32-29.73,30.89c-10.43,14.27-15.7,32.98-3.19,45.18c9.17,9.51,31.27,9.23,38.7-5.44
			c5.27-10.63-0.19-21.65-9.93-25.78c6.39-6,15.87-9.42,23.71-4.7l0.23,0.11c7.7,6.72,10.95,16.47,9.59,25.75
			c-0.06,0.41-0.13,0.83-0.21,1.24c0.32-0.27,0.64-0.54,0.97-0.8c7.37-5.81,17.46-7.88,27.14-4.58l0.21,0.14
			c8.02,4.42,9.79,14.33,7.78,22.85c-8.45-6.35-20.74-5.56-27.33,4.31c-9.02,13.76,1.8,33.01,14.63,36.18
			c16.83,4.72,30.43-9.19,37.6-25.34c5.79-13.12,7.12-27.62,11.93-41.15c6.97-19.39,20.65-27.15,38.63-33.46l0.03-0.01
			c3.78,2.2,7.37,4.47,10.69,6.92c3.31,2.47,6.31,5.36,8.96,8.4c5.29,6.14,9.1,13.4,10.72,22.71c2.42,14.05,0.35,28.62,2.8,42.59
			c1.55,8.88,4.9,17.87,10.05,24.47c3.14,7.76,9.27,15.15,16.2,20.93c10.9,9.11,24.57,14.6,35.55,23.72
			c7.26,6.05,11.66,12.97,14.34,20.62c1.31,3.81,2.32,7.85,2.8,11.95c0.47,4.09,0.64,8.33,0.66,12.7l-0.02,0.02
			c-14.47,12.39-28.04,20.34-48.35,16.67c-14.14-2.6-27.39-8.71-41.66-10.26c-17.59-1.88-36.46,2.92-40.79,19.83
			c-3.66,12.68,7.63,31.65,24.07,30.74c11.85-0.76,18.69-10.99,17.4-21.47c8.4,2.53,16.11,9.01,15.93,18.15l0.02,0.25
			c-1.98,10.01-8.82,17.7-17.54,21.17c-0.39,0.16-0.78,0.3-1.17,0.44c0.39,0.14,0.79,0.28,1.17,0.44
			c8.72,3.47,15.56,11.16,17.54,21.17l-0.02,0.25c0.18,9.14-7.53,15.63-15.93,18.15c1.29-10.48-5.55-20.71-17.4-21.47
			c-16.45-0.92-27.73,18.06-24.07,30.74c4.32,16.91,23.19,21.72,40.79,19.83c14.28-1.55,27.52-7.66,41.66-10.26
			c20.31-3.67,33.88,4.28,48.35,16.67l0.02,0.02c-0.02,4.37-0.19,8.61-0.66,12.7c-0.49,4.1-1.5,8.14-2.8,11.95
			c-2.68,7.64-7.08,14.57-14.34,20.62c-10.98,9.12-24.65,14.61-35.55,23.72c-6.93,5.78-13.06,13.17-16.2,20.93
			c-5.16,6.6-8.51,15.59-10.05,24.47c-2.45,13.98-0.38,28.54-2.8,42.59c-1.62,9.31-5.42,16.57-10.72,22.71
			c-2.65,3.04-5.65,5.93-8.96,8.4c-3.31,2.45-6.91,4.71-10.69,6.92l-0.03-0.01c-17.98-6.31-31.66-14.07-38.63-33.46
			c-4.81-13.53-6.14-28.03-11.93-41.15c-7.16-16.15-20.77-30.06-37.6-25.34c-12.83,3.17-23.65,22.42-14.63,36.18
			c6.59,9.87,18.88,10.66,27.33,4.31c2.01,8.52,0.24,18.43-7.78,22.85l-0.21,0.14c-9.67,3.3-19.76,1.23-27.14-4.58
			c-0.33-0.26-0.65-0.52-0.97-0.8c0.08,0.41,0.15,0.82,0.21,1.24c1.35,9.28-1.9,19.03-9.59,25.75l-0.23,0.11
			c-7.84,4.73-17.32,1.3-23.71-4.7c9.74-4.13,15.19-15.15,9.93-25.78c-7.43-14.68-29.53-14.95-38.7-5.44
			c-12.51,12.19-7.24,30.91,3.19,45.18c8.49,11.56,20.41,19.96,29.73,30.89c13.34,15.72,13.23,31.43,9.71,50.13l-0.01,0.03
			c-3.8,2.17-7.56,4.14-11.34,5.78c-3.8,1.63-7.81,2.78-11.77,3.55c-7.97,1.51-16.17,1.16-25.06-2.09c-13.4-4.93-25-14-38.35-18.87
			c-8.48-3.1-17.95-4.7-26.25-3.54c-8.3-1.16-17.78,0.44-26.25,3.54c-13.35,4.87-24.95,13.94-38.35,18.87
			c-8.88,3.25-17.09,3.6-25.06,2.09c-3.96-0.77-7.97-1.92-11.77-3.55c-3.78-1.64-7.54-3.61-11.34-5.78l-0.01-0.03
			c-3.52-18.7-3.63-34.41,9.71-50.13c9.33-10.92,21.25-19.32,29.73-30.89c10.43-14.27,15.7-32.98,3.19-45.18
			c-9.17-9.51-31.27-9.23-38.7,5.44c-5.27,10.63,0.19,21.65,9.93,25.78c-6.39,6-15.87,9.42-23.71,4.7l-0.23-0.11
			c-7.7-6.72-10.95-16.47-9.59-25.75c0.06-0.41,0.13-0.83,0.21-1.24c-0.32,0.27-0.64,0.54-0.97,0.8
			c-7.37,5.81-17.46,7.88-27.14,4.58l-0.21-0.14c-8.02-4.42-9.79-14.33-7.78-22.85c8.45,6.35,20.74,5.56,27.33-4.31
			c9.02-13.76-1.8-33.01-14.63-36.18c-16.83-4.72-30.43,9.19-37.6,25.34c-5.79,13.12-7.12,27.62-11.93,41.15
			c-6.97,19.39-20.65,27.15-38.63,33.46l-0.03,0.01c-3.78-2.2-7.37-4.47-10.69-6.92c-3.31-2.47-6.31-5.36-8.96-8.4
			c-5.29-6.14-9.1-13.4-10.72-22.71c-2.42-14.05-0.35-28.62-2.8-42.59c-1.55-8.88-4.9-17.87-10.05-24.47
			c-3.14-7.76-9.27-15.15-16.2-20.93c-10.9-9.11-24.57-14.6-35.55-23.72c-7.26-6.05-11.66-12.97-14.34-20.62
			c-1.31-3.81-2.32-7.85-2.81-11.95c-0.47-4.09-0.64-8.33-0.66-12.7l0.02-0.02c14.47-12.39,28.03-20.34,48.35-16.67
			c14.14,2.6,27.39,8.71,41.66,10.26c17.59,1.88,36.46-2.92,40.79-19.83c3.66-12.68-7.63-31.65-24.07-30.74
			c-11.85,0.76-18.69,10.99-17.4,21.47c-8.4-2.53-16.11-9.01-15.93-18.15l-0.02-0.25c1.98-10.01,8.82-17.7,17.54-21.17
			c0.39-0.16,0.78-0.3,1.17-0.44c-0.4-0.14-0.79-0.28-1.17-0.44c-8.72-3.47-15.56-11.16-17.54-21.17l0.02-0.25
			c-0.18-9.14,7.53-15.63,15.93-18.15c-1.29,10.48,5.55,20.71,17.4,21.47c16.45,0.92,27.73-18.06,24.07-30.74
			c-4.32-16.91-23.19-21.72-40.79-19.83c-14.28,1.55-27.52,7.66-41.66,10.26c-20.31,3.67-33.88-4.28-48.35-16.67l-0.02-0.02
			c0.02-4.37,0.19-8.61,0.66-12.7c0.49-4.1,1.5-8.14,2.81-11.95c2.68-7.64,7.08-14.57,14.34-20.62
			c10.98-9.12,24.65-14.61,35.55-23.72c6.93-5.78,13.06-13.17,16.2-20.93c5.16-6.6,8.51-15.59,10.05-24.47
			c2.45-13.98,0.38-28.54,2.8-42.59c1.62-9.31,5.42-16.57,10.72-22.71c2.65-3.04,5.65-5.93,8.96-8.4c3.31-2.45,6.91-4.71,10.69-6.92
			l0.03,0.01c17.98,6.31,31.66,14.07,38.63,33.46c4.81,13.53,6.14,28.03,11.93,41.15c7.16,16.15,20.77,30.06,37.6,25.34
			c12.83-3.17,23.65-22.42,14.63-36.18c-6.59-9.87-18.88-10.66-27.33-4.31c-2.01-8.52-0.24-18.43,7.78-22.85l0.21-0.14
			c9.67-3.3,19.76-1.23,27.14,4.58C467.11,369.76,467.43,370.03,467.75,370.3z M600,284.85c-1.93,0.3-3.9,0.51-5.91,0.6
			c-15.61,0.77-27.87-6.44-41.74-13.71c-7.14-3.72-14.18-6.82-21.38-8.32c-7.26-1.55-14.48-1.33-21.98,1.6
			c-1.09,0.22-2.05,0.82-2.69,1.77l-0.02,0.02c-0.66,0.91-0.89,2-0.76,3.09c-0.66,16.24,8.25,27.85,19.66,39.07
			c10.31,10.07,20.74,18.94,25.1,32.81c3.95,12.32,3.4,24.82,1.57,36.35c-0.57,3.81-1.42,7.53-2.03,11.42
			c-0.62,3.87-1.25,7.76-1.87,11.65c-1.23,7.75-2.31,15.45-2.57,23.02c-0.39,7.5,0.6,15.15,2.96,22.48
			c2.36,7.34,6.21,14.41,12.19,21.12c-16.16,0.56-38-6.77-47.84-19.82c6.4,15.03,1.84,37.57-6.73,51.27
			c-2.84-8.53-7.05-15.39-12.23-21.1c-5.18-5.71-11.33-10.39-18.03-13.8c-6.69-3.56-13.92-6.48-21.25-9.29
			c-3.69-1.41-7.38-2.81-11.04-4.21c-3.68-1.41-7.33-2.53-10.92-3.95c-10.92-4.18-22.03-9.96-30.75-19.53
			c-9.85-10.7-12.33-24.15-15.91-38.1c-4.03-15.48-9.65-28.98-24.06-36.53c-0.88-0.66-1.94-1-3.06-0.88l-0.03,0.01
			c-1.15,0.08-2.15,0.61-2.89,1.44c-6.29,5.02-10.08,11.15-12.38,18.2c-2.3,6.97-3.13,14.61-3.47,22.64
			c-0.63,15.62-0.51,29.83-8.98,42.94c-1.09,1.7-2.25,3.29-3.47,4.81c-0.7,1.82-1.51,3.62-2.44,5.41
			c-7.14,13.88-19.53,20.88-32.76,29.23c-6.8,4.31-13.01,8.85-17.9,14.32c-4.97,5.51-8.39,11.86-9.6,19.8
			c-0.35,1.05-0.32,2.18,0.19,3.21l0.01,0.03c0.46,1.02,1.28,1.77,2.3,2.2c13.76,8.69,28.28,6.8,43.73,2.54
			c13.89-3.88,26.8-8.46,41.01-5.3c12.66,2.75,23.23,9.47,32.32,16.82c3.02,2.39,5.82,4.99,8.89,7.47c3.05,2.47,6.11,4.96,9.17,7.45
			c6.11,4.94,12.25,9.72,18.69,13.73c6.31,4.08,13.44,7.06,20.99,8.68c7.55,1.62,15.6,1.84,24.42,0.02
			c-7.59,14.25-24.87,29.47-41.11,31.45c16.24,1.98,33.52,17.19,41.11,31.45c-8.82-1.81-16.87-1.6-24.42,0.02
			c-7.55,1.62-14.68,4.6-20.99,8.68c-6.44,4.01-12.58,8.79-18.69,13.73c-3.06,2.49-6.13,4.97-9.17,7.45
			c-3.07,2.47-5.86,5.07-8.89,7.47c-9.08,7.35-19.65,14.07-32.32,16.82c-14.21,3.16-27.12-1.42-41.01-5.3
			c-15.44-4.26-29.96-6.15-43.73,2.54c-1.01,0.43-1.84,1.18-2.3,2.2l-0.01,0.03c-0.51,1.03-0.54,2.16-0.19,3.21
			c1.21,7.94,4.63,14.29,9.6,19.8c4.9,5.47,11.11,10.01,17.9,14.32c13.23,8.35,25.62,15.35,32.76,29.23
			c0.93,1.79,1.73,3.59,2.44,5.41c1.23,1.52,2.39,3.11,3.47,4.81c8.47,13.11,8.35,27.32,8.98,42.94c0.34,8.03,1.17,15.67,3.47,22.64
			c2.29,7.05,6.09,13.18,12.38,18.2c0.74,0.83,1.74,1.37,2.89,1.44l0.03,0.01c1.11,0.12,2.18-0.22,3.06-0.88
			c14.42-7.56,20.04-21.05,24.06-36.53c3.58-13.95,6.06-27.4,15.91-38.1c8.72-9.57,19.83-15.35,30.75-19.53
			c3.59-1.42,7.24-2.54,10.92-3.95c3.67-1.4,7.36-2.8,11.04-4.21c7.34-2.81,14.56-5.73,21.25-9.29c6.7-3.41,12.84-8.09,18.03-13.8
			c5.18-5.71,9.39-12.57,12.23-21.1c8.57,13.69,13.13,36.24,6.73,51.27c9.84-13.05,31.67-20.38,47.84-19.82
			c-5.98,6.72-9.83,13.79-12.19,21.12c-2.36,7.34-3.35,14.99-2.96,22.48c0.26,7.57,1.34,15.27,2.57,23.02
			c0.62,3.89,1.25,7.78,1.87,11.65c0.61,3.89,1.47,7.61,2.03,11.42c1.83,11.53,2.38,24.03-1.57,36.35
			c-4.36,13.86-14.79,22.73-25.1,32.81c-11.42,11.22-20.32,22.83-19.66,39.07c-0.13,1.09,0.1,2.18,0.76,3.09l0.02,0.02
			c0.64,0.96,1.61,1.55,2.69,1.77c7.5,2.93,14.71,3.14,21.98,1.6c7.2-1.5,14.24-4.6,21.38-8.32c13.86-7.26,26.13-14.47,41.74-13.71
			c2.01,0.09,3.98,0.3,5.91,0.6c1.93-0.3,3.9-0.51,5.91-0.6c15.61-0.77,27.87,6.44,41.74,13.71c7.14,3.72,14.18,6.82,21.37,8.32
			c7.26,1.55,14.48,1.33,21.98-1.6c1.09-0.22,2.05-0.82,2.69-1.77l0.02-0.02c0.66-0.91,0.89-2,0.76-3.09
			c0.66-16.24-8.25-27.85-19.66-39.07c-10.31-10.07-20.74-18.94-25.1-32.81c-3.95-12.32-3.4-24.82-1.57-36.35
			c0.57-3.81,1.42-7.53,2.03-11.42c0.62-3.87,1.25-7.76,1.87-11.65c1.23-7.75,2.31-15.45,2.57-23.02c0.39-7.5-0.6-15.15-2.96-22.48
			c-2.36-7.34-6.21-14.41-12.19-21.12c16.16-0.56,38,6.77,47.84,19.82c-6.4-15.03-1.84-37.57,6.73-51.27
			c2.84,8.53,7.05,15.39,12.23,21.1c5.18,5.71,11.33,10.39,18.03,13.8c6.69,3.56,13.92,6.48,21.25,9.29
			c3.69,1.41,7.38,2.81,11.05,4.21c3.68,1.41,7.33,2.53,10.92,3.95c10.92,4.18,22.03,9.96,30.75,19.53
			c9.85,10.7,12.33,24.15,15.91,38.1c4.03,15.48,9.65,28.98,24.06,36.53c0.88,0.66,1.94,1,3.06,0.88l0.03-0.01
			c1.15-0.08,2.15-0.61,2.88-1.44c6.29-5.02,10.08-11.15,12.38-18.2c2.3-6.97,3.13-14.61,3.47-22.64
			c0.63-15.62,0.51-29.83,8.98-42.94c1.09-1.7,2.25-3.29,3.47-4.81c0.7-1.82,1.51-3.62,2.44-5.41
			c7.14-13.88,19.53-20.88,32.76-29.23c6.8-4.31,13.01-8.85,17.9-14.32c4.97-5.51,8.39-11.86,9.6-19.8
			c0.35-1.05,0.32-2.18-0.19-3.21l-0.01-0.03c-0.46-1.02-1.28-1.77-2.3-2.2c-13.76-8.69-28.28-6.8-43.73-2.54
			c-13.9,3.88-26.8,8.46-41.01,5.3c-12.66-2.75-23.23-9.47-32.32-16.82c-3.02-2.39-5.82-4.99-8.89-7.47
			c-3.04-2.47-6.11-4.96-9.17-7.45c-6.11-4.94-12.25-9.72-18.69-13.73c-6.31-4.08-13.44-7.06-20.99-8.68
			c-7.55-1.62-15.6-1.84-24.42-0.02c7.59-14.25,24.87-29.47,41.11-31.45c-16.24-1.98-33.52-17.19-41.11-31.45
			c8.82,1.81,16.87,1.6,24.42-0.02c7.54-1.62,14.68-4.6,20.99-8.68c6.44-4.01,12.58-8.79,18.69-13.73c3.06-2.49,6.13-4.97,9.17-7.45
			c3.06-2.47,5.86-5.07,8.89-7.47c9.08-7.35,19.66-14.07,32.32-16.82c14.21-3.16,27.12,1.42,41.01,5.3
			c15.44,4.26,29.96,6.15,43.73-2.54c1.01-0.43,1.84-1.18,2.3-2.2l0.01-0.03c0.51-1.03,0.54-2.16,0.19-3.21
			c-1.21-7.94-4.63-14.29-9.6-19.8c-4.9-5.47-11.11-10.01-17.9-14.32c-13.23-8.35-25.62-15.35-32.76-29.23
			c-0.93-1.79-1.73-3.59-2.44-5.41c-1.23-1.52-2.39-3.11-3.47-4.81c-8.47-13.11-8.35-27.32-8.98-42.94
			c-0.34-8.03-1.17-15.67-3.47-22.64c-2.29-7.05-6.09-13.18-12.38-18.2c-0.74-0.83-1.74-1.37-2.88-1.44l-0.03-0.01
			c-1.12-0.12-2.18,0.22-3.06,0.88c-14.42,7.56-20.04,21.05-24.06,36.53c-3.58,13.95-6.06,27.4-15.91,38.1
			c-8.72,9.57-19.83,15.35-30.75,19.53c-3.59,1.42-7.24,2.54-10.92,3.95c-3.67,1.4-7.36,2.8-11.05,4.21
			c-7.34,2.81-14.56,5.73-21.25,9.29c-6.7,3.41-12.84,8.09-18.03,13.8c-5.18,5.71-9.39,12.57-12.23,21.1
			c-8.57-13.69-13.13-36.24-6.73-51.27c-9.84,13.05-31.67,20.38-47.84,19.82c5.98-6.72,9.83-13.79,12.19-21.12
			c2.36-7.34,3.35-14.99,2.96-22.48c-0.26-7.57-1.34-15.27-2.57-23.02c-0.63-3.89-1.25-7.78-1.87-11.65
			c-0.61-3.89-1.47-7.61-2.03-11.42c-1.83-11.53-2.38-24.03,1.57-36.35c4.36-13.86,14.79-22.73,25.1-32.81
			c11.42-11.22,20.32-22.83,19.66-39.07c0.13-1.09-0.1-2.18-0.76-3.09l-0.02-0.02c-0.64-0.96-1.61-1.55-2.69-1.77
			c-7.5-2.93-14.71-3.14-21.98-1.6c-7.2,1.5-14.24,4.6-21.37,8.32c-13.86,7.26-26.13,14.47-41.74,13.71
			C603.9,285.36,601.93,285.15,600,284.85z"/>
	</g>
</g>
</svg>
